<?xml version="1.0" standalone="no"?>
<!DOCTYPE svg PUBLIC "-//W3C//DTD SVG 1.1//EN" "http://www.w3.org/Graphics/SVG/1.1/DTD/svg11.dtd">
<svg xmlns="http://www.w3.org/2000/svg" width="2000.000mm" height="2000.000mm" viewBox="0 0 2000.000 2000.000">
	<g id="3">
		<path style="fill:rgb(3,6,16);" d="m0.000,-0.000l2000.000,-0.000l0.000,2000.000l-2000.000,-0.000z"/>
	</g>
	<g id="4">
		<path style="fill:rgb(255,205,0);" d="m1116.839,553.124c-1.901,48.309 -90.852,133.929 -179.941,80.557c10.064,66.934 119.950,94.937 306.963,48.045c150.284,-37.682 267.390,-203.543 269.190,-324.264c2.275,-152.542 -163.579,-303.265 -403.550,-298.558c-367.208,7.201 -768.297,293.073 -653.293,605.308c31.625,85.863 173.880,239.624 341.446,287.279c222.918,63.397 474.151,13.962 587.368,-85.949c60.856,-53.704 124.833,-136.816 171.689,-127.735c3.499,-0.184 10.486,1.919 12.766,3.761c4.174,3.377 -5.119,33.137 -40.224,86.435c-43.119,95.021 -64.243,161.477 -40.974,236.018c49.628,153.400 202.909,94.660 160.885,277.097c-61.604,267.442 -268.936,326.136 -486.865,349.951c-336.668,36.790 -511.832,17.544 -680.033,2.892c-212.944,-18.549 -458.824,-142.540 -482.266,-316.256c-26.162,-193.883 142.954,-322.721 310.293,-320.394c120.564,1.676 224.102,103.395 225.931,268.816c0.568,51.402 -46.308,128.492 -146.710,124.386c-67.064,-2.743 -109.488,-54.691 -110.756,-111.071c-1.757,-78.109 100.180,-114.158 151.134,-102.314c56.557,13.147 78.808,103.340 78.722,95.469c-0.931,-85.565 -113.904,-195.526 -188.450,-190.394c-108.704,7.484 -185.374,115.676 -163.434,214.974c29.073,131.582 121.640,264.499 324.532,288.464c74.934,8.851 330.513,19.141 461.505,-11.547c279.347,-65.443 528.813,-250.567 427.389,-623.854c-359.425,162.361 -956.788,121.034 -1151.170,-273.272c-119.830,-243.077 198.310,-712.353 893.416,-736.968c291.560,-10.325 631.590,76.854 627.721,315.179c-3.323,204.722 -188.606,356.846 -442.478,426.003c-106.281,28.952 -250.267,18.208 -324.031,-6.131c-48.359,-15.957 -139.887,-76.896 -125.764,-180.495c11.703,-85.849 64.425,-128.247 139.109,-129.460c80.266,-1.303 132.949,50.021 129.880,128.028z"/>
	</g>
</svg>