<?xml version="1.0" encoding="UTF-8"?>
<!-- Generator: Blender, SVG Export for Grease Pencil - v1.0 -->
<!DOCTYPE svg PUBLIC "-//W3C//DTD SVG 1.1//EN" "http://www.w3.org/Graphics/SVG/1.1/DTD/svg11.dtd">
<svg version="1.0" x="0px" y="0px" xmlns="http://www.w3.org/2000/svg" width="512px" height="512px" viewBox="0 0 512 512">
	<g id="blender_frame_1">
		<g id="blender_object_Line Art">
			<!--Layer: Lines-->
			<g id="Lines">
				<polygon fill="#FEC700" stroke="none" fill-opacity="1" points="144.386963,371.031067 145.500732,371.027283 146.613770,371.032684 147.726135,371.047211 148.837799,371.070953 149.948792,371.103851 151.059052,371.146027 152.168594,371.197388 153.277405,371.257996 154.385498,371.327881 155.492859,371.407074 156.599442,371.495605 157.705292,371.593628 158.810333,371.701233 159.914246,371.818420 161.015518,371.945129 162.112289,372.081299 163.202728,372.226807 164.285248,372.381592 165.359573,372.545563 166.425720,372.718781 167.483643,372.901215 168.533401,373.092865 169.574982,373.293701 170.608368,373.503754 171.633591,373.722961 172.650620,373.951385 173.659485,374.188965 174.660172,374.435699 175.652679,374.691589 177.613251,375.230774 179.541199,375.806488 181.436508,376.418640 183.299255,377.067200 185.129440,377.752045 186.927109,378.473145 188.692261,379.230469 190.424927,380.023895 192.125137,380.853363 193.792938,381.718842 195.428314,382.620270 197.031311,383.557526 198.601944,384.530609 200.140228,385.539429 201.661346,386.599762 203.240845,387.790741 204.076111,388.461548 204.931580,389.180542 205.790131,389.939545 206.634705,390.730347 207.450974,391.545898 208.235687,392.383698 208.988342,393.242371 209.708496,394.120544 210.395599,395.016968 211.049210,395.930176 211.668823,396.858887 212.253952,397.801666 212.804092,398.757263 213.318787,399.724243 213.797516,400.701294 214.239822,401.687012 214.645187,402.680176 215.013123,403.679260 215.343170,404.682983 215.634827,405.690033 215.887604,406.698975 216.100998,407.708557 216.407745,409.723938 216.551117,411.725464 216.527252,413.702209 216.332245,415.643372 215.962158,417.538116 215.413116,419.375641 214.681183,421.145081 213.762466,422.835632 212.653061,424.436401 211.349060,425.936646 209.846558,427.325500 209.011902,427.979340 208.079788,428.628784 207.003357,429.299957 205.735764,430.018982 204.249527,430.802124 202.594879,431.625427 200.841400,432.455139 199.058701,433.257446 197.304657,434.004456 195.590134,434.692017 193.914291,435.322021 192.276260,435.896179 190.675140,436.416321 189.110107,436.884277 187.580292,437.301910 186.084839,437.670959 184.622864,437.993225 183.193527,438.270569 181.795944,438.504730 180.429276,438.697632 179.092621,438.850952 177.785187,438.966614 176.506027,439.046326 175.254333,439.091980 174.029236,439.105347 172.829865,439.088257 171.655334,439.042511 170.504837,438.969849 169.377457,438.872192 168.272339,438.751282 167.188660,438.608948 166.125519,438.447021 165.082062,438.267303 164.057434,438.071564 163.050766,437.861633 161.087875,437.406494 159.186462,436.916321 157.339630,436.405579 155.540497,435.888763 153.782166,435.380371 152.057724,434.894806 150.369446,434.447876 148.931259,434.083862" />
				<polygon fill="#FEC700" stroke="none" fill-opacity="1" points="148.931259,434.083862 150.317596,433.443329 151.466217,433.239960 152.783722,432.984009 154.243729,432.671356 155.283234,432.429382 156.366577,432.159119 157.485916,431.859375 158.633453,431.528870 159.801392,431.166443 160.981888,430.770813 162.167175,430.340759 163.349426,429.875153 164.520813,429.372620 165.673523,428.832031 166.799820,428.252136 167.888412,427.631866 168.914490,426.970764 169.856491,426.265625 170.719482,425.501282 171.513184,424.663879 172.239655,423.755493 172.898987,422.782745 173.491287,421.751953 174.016632,420.669617 174.475113,419.542114 174.866837,418.375854 175.191925,417.177246 175.450409,415.952759 175.642456,414.708801 175.768112,413.451752 175.827515,412.188110 175.820694,410.924225 175.747818,409.666565 175.608932,408.421509 175.404175,407.195496 175.133575,405.994995 174.797302,404.826416 174.395416,403.696075 173.928009,402.610504 173.376419,401.549988 172.646881,400.390503 171.664673,399.037415 170.506317,397.617798 169.267563,396.283508 167.970016,395.062744 166.616638,393.952911 165.210434,392.951355 163.754395,392.055420 162.251511,391.262573 160.704803,390.570129 159.117249,389.975464 157.491791,389.475952 155.831543,389.068970 154.139404,388.751892 152.418411,388.522125 150.671539,388.377014 148.902008,388.313080 147.112183,388.330231 145.305695,388.423279 143.485306,388.590515 141.654053,388.829285 139.814880,389.136963 137.970810,389.510895 136.130310,389.949951 134.323914,390.458862 132.584869,391.044098 130.935669,391.713074 129.392288,392.471375 127.955383,393.315552 126.621826,394.240082 125.388474,395.239441 124.252213,396.308044 123.209869,397.440369 122.258316,398.630798 121.394409,399.873779 120.614990,401.163818 119.916977,402.495239 119.297150,403.862610 118.752426,405.260315 118.279602,406.682861 117.875626,408.124512 117.537277,409.579895 117.261475,411.043335 117.045013,412.509369 116.884827,413.972351 116.777710,415.426758 116.720535,416.867065 116.725708,418.341675 116.867706,420.115356 117.017395,421.199646 117.230743,422.392456 117.514648,423.647888 117.876083,424.919983 118.320511,426.170593 118.847763,427.391998 119.456284,428.584290 120.144379,429.747559 120.910461,430.881958 121.752945,431.987427 122.670227,433.064148 123.660690,434.112091 124.722626,435.131409 125.854568,436.122131 127.054855,437.084351 128.321808,438.018066 129.653915,438.923462 131.049500,439.800568 132.506958,440.649384 134.024704,441.470062 135.601120,442.262665 137.234589,443.027222 138.923508,443.763824 140.666260,444.472595 142.461197,445.153503 144.306793,445.806702 146.201324,446.432251 148.143311,447.030151 150.131027,447.600555 152.162903,448.143494 154.237366,448.659058 156.352753,449.147308 158.507446,449.608337 160.699890,450.042145 162.928406,450.448883 165.191467,450.828613 167.487396,451.181335 169.814575,451.507202 172.171448,451.806213 174.556351,452.078491 176.967712,452.324158 179.403870,452.543152 181.863297,452.735596 184.344299,452.901611 186.835419,453.040833 189.285706,453.151245 191.634247,453.230408 193.829575,453.277557 195.802078,453.286072 197.614990,453.260315 199.313553,453.198914 200.952271,453.102051 202.576401,452.970093 204.194092,452.803650 205.804230,452.603455 207.405701,452.370300 208.997375,452.104919 210.578156,451.808075 212.146912,451.480530 213.702530,451.123047 215.243912,450.736389 216.769897,450.321289 218.279449,449.878479 219.771362,449.408752 221.244568,448.912872 222.697937,448.391602 224.130371,447.845642 225.540741,447.275757 226.927917,446.682800 228.290833,446.067413 229.628296,445.430389 230.939240,444.772491 232.222549,444.094482 233.477097,443.397095 234.701767,442.681152 235.895432,441.947296 237.056992,441.196350 238.185318,440.429108 239.279327,439.646240 240.337860,438.848541 241.359818,438.036804 242.344086,437.211731 243.289566,436.374115 244.195099,435.524658 245.059601,434.664185 245.881943,433.793427 246.661026,432.913116 247.395706,432.023987 248.084885,431.126923 248.727448,430.222534 249.322281,429.311646 249.868256,428.394989 250.366516,427.461334 250.827225,426.451355 251.262833,425.293701 251.685730,423.917053 252.100388,422.275574 252.479279,420.424713 252.786880,418.445557 252.987701,416.419067 253.052719,414.412872 252.978973,412.440491 252.769974,410.502319 252.429291,408.598480 251.960388,406.729218 251.366837,404.894775 250.652145,403.095337 249.819839,401.331177 248.873459,399.602509 247.816513,397.909515 246.652527,396.252472 245.385056,394.631531 244.017609,393.047028 242.553680,391.499115 240.996857,389.988007 239.350616,388.513947 237.618515,387.077209 235.804047,385.677917 233.910782,384.316345 231.942215,382.992737 229.901871,381.707336 227.793304,380.460297 225.620010,379.251892 223.385529,378.082336 221.093384,376.951843 218.747101,375.860626 216.350220,374.808960 213.906250,373.796997 211.418716,372.825043 208.891144,371.893280 206.327087,371.001923 203.730042,370.151184 201.103546,369.341339 198.451141,368.572571 195.776321,367.845123 193.082642,367.159210 190.373596,366.515076 187.652740,365.912903 184.923599,365.352966 182.189697,364.835449 179.465012,364.361511 176.805450,363.935944 174.277359,363.564453 171.947083,363.252747 169.859070,363.003418 167.970154,362.806488 166.215149,362.648987 164.528946,362.517822 162.857269,362.402191 161.189270,362.299774 159.524994,362.210632 157.864426,362.134644 156.207581,362.071869 154.554504,362.022186 152.905151,361.985596 151.259460,361.961487 149.617828,361.951508 147.979889,361.953949 146.345749,361.969299 144.715424,361.997589 143.088959,362.038696 141.466370,362.092651 139.847656,362.159393 138.232803,362.238861 136.621872,362.331055 135.014862,362.435913 133.411804,362.553406 131.812683,362.683441 130.217529,362.826111 128.626343,362.981262 127.039169,363.148895 125.455978,363.328979 123.876816,363.521454 122.301727,363.726318 120.730652,363.943512 119.163620,364.172974 117.600708,364.414734 116.041885,364.668701 114.487183,364.934814 112.936569,365.213074 111.390091,365.503479 109.847778,365.805908 108.309647,366.120392 106.775711,366.446869 105.245941,366.785278 103.720383,367.135620 102.199066,367.497864 100.681976,367.871887 99.164383,368.258911 97.622696,368.664429 96.028397,369.095215 94.353226,369.558075 92.579422,370.057465 90.732452,370.588898 88.848450,371.145752 86.963547,371.721313 85.107895,372.310059 83.287491,372.910828 81.502380,373.523621 79.752548,374.148438 78.037918,374.785339 76.358582,375.434265 74.714554,376.095215 73.105789,376.768219 71.532242,377.453278 69.993973,378.150360 68.490982,378.859497 67.023254,379.580627 65.590790,380.313843 64.193573,381.059082 62.831665,381.816406 61.505005,382.585693 60.213593,383.367065 58.957443,384.160522 57.736588,384.965942 56.551010,385.783447 55.400620,386.613007 54.285553,387.454620 53.205734,388.308228 52.161194,389.173920 51.151947,390.051666 50.177887,390.941406 49.239120,391.843231 48.335693,392.757080 47.467453,393.682983 46.634476,394.620972 45.836777,395.570953 45.074371,396.532990 44.347183,397.507080 43.655273,398.493225 42.998642,399.491425 42.377304,400.501648 41.791168,401.523926 41.240341,402.558258 40.724716,403.604614 40.244461,404.663055 39.799606,405.733246 39.391586,406.813660 39.021896,407.902527 38.692017,408.998016 38.403122,410.098419 38.154968,411.202393 37.947006,412.308716 37.778549,413.416077 37.649078,414.523499 37.558517,415.630707 37.506912,416.737732 37.494247,417.844574 37.520493,418.951233 37.585587,420.057678 37.689682,421.163971 37.832718,422.270050 38.014618,423.375977 38.235428,424.481689 38.495224,425.587219 38.793884,426.692535 39.131470,427.797699 39.508026,428.902679 39.923447,430.007446 40.377838,431.112091 40.871094,432.216461 41.403290,433.320679 41.974426,434.424744 42.584473,435.528625 43.233398,436.632294 43.921295,437.735809 44.648117,438.839111 45.413834,439.942200 46.218475,441.045166 47.062042,442.147888 47.944534,443.250458 48.865967,444.352844 49.826309,445.455078 50.825546,446.557068 51.863754,447.658875 52.940826,448.760498 54.056854,449.862000 55.211746,450.963257 56.405609,452.064392 57.638397,453.165283 58.910095,454.266022 60.220718,455.366577 61.570221,456.466919 62.958710,457.567078 64.390060,458.669647 65.884186,459.787231 67.464966,460.934998 69.156281,462.128235 70.974976,463.377106 72.910080,464.671356 74.943573,465.995789 77.057541,467.335114 79.236923,468.676453 81.478806,470.015991 83.783264,471.352234 86.150299,472.683655 88.579941,474.008911 91.072342,475.326355 93.627426,476.634583 96.245361,477.932007 98.926041,479.217285 101.669632,480.488861 104.476181,481.745239 107.345703,482.984924 110.278214,484.206482 113.273834,485.408386 116.332550,486.589111 119.454483,487.747253 122.639587,488.881256 125.887985,489.989685 129.199692,491.070984 132.574768,492.123779 136.013245,493.146484 139.515167,494.137604 143.080597,495.095703 146.709579,496.019226 150.402161,496.906799 154.158401,497.756927 157.978333,498.567963 161.862015,499.338562 165.809479,500.067200 169.820786,500.752380 173.895996,501.392639 178.035126,501.986420 182.238251,502.532349 186.505402,503.028870 190.836624,503.474487 195.231995,503.867737 199.691544,504.207153 204.215286,504.491211 208.803314,504.718384 213.455673,504.887299 218.164902,504.997559 222.893494,505.053680 227.596497,505.061401 232.233719,505.027832 236.756073,504.953918 241.184723,504.848877 245.531876,504.715546 249.814621,504.558319 254.047348,504.380646 258.233948,504.182068 262.375671,503.961182 266.473755,503.716553 270.529449,503.446716 274.544037,503.150330 278.518738,502.825989 282.454803,502.472198 286.353485,502.087708 290.216034,501.670868 294.043732,501.220459 297.837769,500.734894 301.599426,500.212952 305.329987,499.653046 309.030640,499.053894 312.702698,498.413971 316.347351,497.731964 319.965881,497.006409 323.559540,496.235840 327.129547,495.418884 330.677185,494.554199 334.203735,493.640289 337.710358,492.675720 341.198364,491.659119 344.669006,490.589111 348.123505,489.464172 351.563141,488.282990 354.989136,487.044067 358.402771,485.746063 361.805298,484.387512 365.197937,482.967041 368.581909,481.483185 371.958557,479.934570 375.329041,478.319763 378.694672,476.637329 382.056671,474.885864 385.416290,473.064026 388.774811,471.170288 392.133423,469.203308 395.493408,467.161621 398.837799,465.057953 402.076416,462.961243 405.100952,460.954559 407.803040,459.120911 410.108948,457.518738 412.083466,456.107513 413.825989,454.822144 415.435852,453.597412 416.996063,452.379181 418.523254,451.156372 420.017700,449.929016 421.479553,448.696930 422.909119,447.460175 424.306549,446.218597 425.672058,444.972137 427.005829,443.720703 428.308228,442.464294 429.579285,441.202759 430.819336,439.936035 432.028442,438.664124 433.207031,437.386871 434.355164,436.104248 435.473145,434.816162 436.561096,433.522522 437.619324,432.223267 438.648010,430.918365 439.647339,429.607697 440.617493,428.291199 441.558807,426.968811 442.471436,425.640503 443.355530,424.306122 444.211365,422.965637 445.039185,421.618958 445.839172,420.265991 446.611511,418.906738 447.356445,417.541077 448.074188,416.168945 448.764954,414.790253 449.428955,413.404907 450.066376,412.012909 450.677490,410.614136 451.262482,409.208557 451.821594,407.796021 452.354950,406.376526 452.862854,404.949982 453.345490,403.516296 453.803101,402.075439 454.235870,400.627258 454.642151,399.175964 455.012970,397.742310 455.337402,396.351318 455.604675,395.028015 455.806549,393.790253 455.945679,392.627014 456.027344,391.520203 456.056946,390.451599 456.039093,389.405701 455.975677,388.377319 455.717163,386.362610 455.291138,384.386780 454.707550,382.428955 454.359741,381.450317 453.976166,380.468414 453.558167,379.480621 453.106873,378.484344 452.623535,377.476990 452.109406,376.455994 451.565704,375.418701 450.993652,374.362518 450.394501,373.284912 449.769470,372.183228 449.119751,371.054871 448.446594,369.897278 447.751282,368.707794 447.034973,367.483887 446.298920,366.222900 445.544342,364.922272 444.772522,363.579407 443.984619,362.191681 443.181824,360.756531 442.365479,359.271301 441.536774,357.733459 440.696930,356.140381 439.847168,354.489471 438.988708,352.778137 438.122742,351.003754 437.250641,349.163757 436.373505,347.255524 435.492554,345.276459 434.609131,343.223999 433.724365,341.095520 432.839508,338.888397 431.955811,336.600067 431.079407,334.243530 430.236420,331.894073 429.457764,329.642670 428.774475,327.580139 428.207855,325.769226 427.740417,324.159576 427.345032,322.672577 426.994476,321.229614 426.666321,319.765472 426.356171,318.268127 426.064392,316.738953 425.791321,315.179321 425.537292,313.590576 425.302551,311.974060 425.087524,310.331146 424.892426,308.663177 424.717682,306.971497 424.563538,305.257477 424.430328,303.522461 424.318420,301.767822 424.228027,299.994873 424.159607,298.205017 424.113403,296.399536 424.089722,294.579895 424.088928,292.747375 424.111328,290.903320 424.157227,289.049133 424.226929,287.186096 424.320862,285.315674 424.439209,283.439087 424.582397,281.557800 424.750610,279.673126 424.944397,277.786407 425.163818,275.898987 425.409363,274.012268 425.681335,272.127563 425.979980,270.246277 426.305725,268.369690 426.658813,266.499207 427.039520,264.636139 427.448303,262.781921 427.885376,260.937805 428.351135,259.105225 428.845764,257.285522 429.369812,255.480011 429.923401,253.690063 430.506958,251.917053 431.120667,250.162323 431.762512,248.434601 432.420166,246.772186 433.078796,245.220795 433.723663,243.826080 434.342926,242.618408 434.936218,241.566833 435.506287,240.625092 436.055664,239.746918 437.099701,238.057953 438.073090,236.438538 438.977356,234.889008 439.813965,233.409729 440.584473,232.001007 441.290253,230.663239 441.932922,229.396729 442.513947,228.201843 443.034790,227.078918 443.496979,226.028290 443.902039,225.050323 444.405701,223.720337 444.789124,222.555756 445.057434,221.557770 445.244812,220.488159 445.185608,219.448822 444.345337,218.747131 443.382172,218.399200 442.355103,218.157410 441.319641,218.075867 439.718903,218.042816 438.073151,218.123444 436.320923,218.423096 434.526733,218.944336 432.692566,219.674896 431.761230,220.114105 430.820801,220.600098 429.871643,221.131042 428.913940,221.705139 427.948151,222.320496 426.974426,222.975250 425.993256,223.667633 425.004761,224.395752 424.009369,225.157806 423.007324,225.951874 421.999023,226.776184 420.984619,227.628845 419.964569,228.508057 418.939087,229.411926 417.908508,230.338684 416.873169,231.286407 415.833344,232.253296 414.789307,233.237488 413.741455,234.237152 412.690033,235.250458 411.635376,236.275543 410.577698,237.310547 409.517456,238.353638 408.454895,239.403015 407.390228,240.456787 406.323883,241.513123 405.256165,242.570160 404.187286,243.626099 403.117615,244.679077 402.047485,245.727234 400.977142,246.768738 399.906952,247.801788 398.837158,248.824432 397.768127,249.834961 396.688538,250.839539 395.540588,251.877075 394.255035,252.994446 392.762482,254.238647 391.012878,255.639893 389.033386,257.161499 386.870392,258.750153 384.570435,260.352448 382.172577,261.923767 379.686676,263.454346 377.115295,264.943176 374.460968,266.389282 371.726257,267.791626 368.913635,269.149200 366.025726,270.460999 363.065002,271.725983 360.034058,272.943176 356.935364,274.111511 353.771545,275.230042 350.545074,276.297729 347.258545,277.313599 343.914459,278.276550 340.515381,279.185669 337.063812,280.039856 333.562347,280.838196 330.013489,281.579590 326.419800,282.263062 322.783813,282.887634 319.108093,283.452209 315.395111,283.955872 311.647461,284.397522 307.867676,284.776215 304.058289,285.090912 300.221863,285.340637 296.360931,285.524292 292.477997,285.640930 288.575623,285.689575 284.656372,285.669128 280.722778,285.578613 276.777344,285.417053 272.822662,285.183411 268.861237,284.876648 264.895630,284.495789 260.928375,284.039795 256.962006,283.507690 252.999054,282.898438 249.042084,282.211029 245.093628,281.444458 241.166016,280.601105 237.310669,279.697052 233.588852,278.751740 230.061768,277.784668 226.770325,276.809631 223.673965,275.818176 220.711792,274.796204 217.822922,273.729584 214.956970,272.606934 212.105698,271.427490 209.271362,270.193298 206.456268,268.906250 203.662628,267.568298 200.892746,266.181458 198.148895,264.747711 195.433365,263.268982 192.748367,261.747192 190.096252,260.184387 187.479218,258.582520 184.899597,256.943512 182.359604,255.269348 179.861557,253.562012 177.407684,251.823425 175.000305,250.055573 172.641663,248.260468 170.334015,246.439972 168.079681,244.596161 165.880859,242.730927 163.739868,240.846222 161.658997,238.944092 159.640457,237.026428 157.686584,235.095215 155.799606,233.152405 153.981781,231.200012 152.235443,229.239960 150.562836,227.274200 148.966202,225.304718 147.447815,223.333496 146.010010,221.362488 144.654968,219.393616 143.385010,217.428894 142.202423,215.470276 141.109436,213.519714 140.108337,211.579163 139.201416,209.650635 138.390930,207.736053 137.679108,205.837372 137.068268,203.956573 136.557892,202.082092 136.136139,200.147888 135.788376,198.074493 135.499969,195.782410 135.258331,193.220245 135.058716,190.449341 134.898376,187.559143 134.774536,184.639252 134.685089,181.763763 134.630096,178.945862 134.610168,176.183289 134.626007,173.473907 134.678146,170.815430 134.767334,168.205750 134.894135,165.642639 135.059296,163.123871 135.263306,160.647308 135.506958,158.210693 135.790771,155.811859 136.115479,153.448669 136.481674,151.118805 136.889984,148.820190 137.341110,146.550537 137.835632,144.307709 138.374237,142.089478 138.957535,139.893677 139.586182,137.718079 140.260803,135.560516 140.982086,133.418793 141.750610,131.290680 142.567047,129.173981 143.432068,127.066528 144.346252,124.966125 145.310287,122.870605 146.324814,120.777710 147.390442,118.685303 148.507843,116.591125 149.677628,114.492981 150.900452,112.388733 152.176971,110.276215 153.507828,108.153137 154.893631,106.017303 156.335052,103.866577 157.832733,101.698792 159.387299,99.511597 160.999405,97.302979 162.669662,95.070679 164.398773,92.812469 166.193115,90.522034 168.082428,88.176758 170.102173,85.749756 172.287872,83.214355 174.662109,80.558624 177.195892,77.830444 179.847351,75.092621 182.574631,72.408020 185.342346,69.828430 188.141266,67.362091 190.968689,65.006165 193.821899,62.757812 196.698196,60.614166 199.594833,58.572540 202.509125,56.630035 205.438354,54.783936 208.379776,53.031311 211.330719,51.369507 214.288483,49.795593 217.250305,48.306824 220.213470,46.900391 223.175339,45.573425 226.133118,44.323212 229.084137,43.146851 232.025665,42.041626 234.954987,41.004700 237.869415,40.033203 240.766220,39.124451 243.642685,38.275513 246.496109,37.483643 249.323761,36.746063 252.122940,36.059875 254.890930,35.422394 257.625031,34.830719 260.322479,34.282043 262.980652,33.773621 265.596741,33.302612 268.168091,32.866211 270.691986,32.461609 273.165680,32.086029 275.586517,31.736633 277.951721,31.410522 280.258606,31.105103 282.504456,30.817413 284.686584,30.544708 286.802246,30.284119 288.848724,30.032898 290.823334,29.788208 292.764618,29.545288 294.876251,29.291626 297.403137,29.012634 300.590240,28.693848 304.598022,28.333069 309.248779,27.977570 314.280518,27.687073 319.431091,27.521301 324.482269,27.528870 329.391357,27.715271 334.159546,28.074829 338.787994,28.602112 343.277924,29.291443 347.630493,30.137329 351.846863,31.134155 355.928284,32.276489 359.875854,33.558655 363.690826,34.975159 367.374329,36.520447 370.927612,38.188934 374.351807,39.975037 377.648071,41.873291 380.817627,43.878052 383.861664,45.983887 386.781372,48.185028 389.577881,50.476135 392.252441,52.851562 394.806152,55.305786 397.240265,57.833191 399.555969,60.428284 401.754395,63.085449 403.836731,65.799194 405.804199,68.563904 407.657959,71.374054 409.399170,74.224121 411.029083,77.108551 412.548828,80.021729 413.959564,82.958099 415.262512,85.912170 416.458862,88.878357 417.549805,91.851074 418.536469,94.824829 419.420074,97.793976 420.201782,100.753052 420.882843,103.696472 421.464355,106.618622 421.947540,109.514038 422.333557,112.377167 422.623840,115.198517 422.820648,117.953735 422.926514,120.614319 422.943848,123.152039 422.875153,125.550354 422.721924,127.840332 422.485779,130.064941 422.168152,132.267090 421.770508,134.482117 421.294189,136.714783 420.740356,138.962280 420.110352,141.221802 419.405334,143.490448 418.626495,145.765411 417.775208,148.043915 416.852600,150.323090 415.859985,152.600098 414.798553,154.872101 413.669556,157.136322 412.474243,159.389862 411.213806,161.629944 409.889587,163.853668 408.502747,166.058289 407.054504,168.240906 405.546143,170.398743 403.978943,172.528931 402.354004,174.628662 400.672729,176.695099 398.936249,178.725403 397.145874,180.716736 395.302734,182.666290 393.408173,184.571198 391.463379,186.428680 389.469635,188.235870 387.428131,189.989960 385.340118,191.688110 383.206848,193.327454 381.029572,194.905212 378.809509,196.418549 376.547882,197.864594 374.245972,199.240540 371.904999,200.543579 369.526184,201.770844 367.110779,202.919525 364.660034,203.986786 362.175171,204.969788 359.657410,205.865723 357.108032,206.671722 354.520630,207.386780 351.858185,208.017059 349.076080,208.570526 346.129700,209.055115 342.993164,209.476624 339.715607,209.832428 336.364929,210.117676 333.009033,210.327515 329.704529,210.458252 326.462982,210.510437 323.284790,210.485779 320.170227,210.385925 317.119690,210.212585 314.133423,209.967438 311.211823,209.652130 308.355164,209.268372 305.563812,208.817841 302.838074,208.302216 300.178284,207.723175 297.584778,207.082397 295.057892,206.381531 292.597931,205.622314 290.205261,204.806396 287.880157,203.935425 285.623016,203.011139 283.434082,202.035187 281.313751,201.009216 279.262360,199.934998 277.280182,198.814117 275.367554,197.648315 273.524872,196.439240 271.752380,195.188568 270.050446,193.897980 268.419403,192.569183 266.859589,191.203827 265.371277,189.803619 263.954865,188.370209 262.610657,186.905304 261.338959,185.410553 260.140137,183.887665 259.014496,182.338318 257.962341,180.764160 256.984070,179.166901 256.079926,177.548187 255.250320,175.909729 254.495544,174.253204 253.815918,172.580292 253.211761,170.892639 252.706558,169.226807 252.416245,167.758484 252.479889,166.698212 253.036545,166.256561 254.175964,166.567902 255.790604,167.461731 257.723541,168.691467 259.817902,170.010315 261.942566,171.213501 264.069489,172.263550 266.196381,173.164734 268.320984,173.921417 270.440979,174.537903 272.554138,175.018494 274.658142,175.367615 276.751312,175.594604 278.829651,175.688477 280.892578,175.668945 282.937225,175.535156 284.961334,175.291473 286.962646,174.942230 288.938873,174.491730 290.887726,173.944336 292.806915,173.304321 294.694183,172.576019 296.547211,171.763855 298.363770,170.872009 300.141602,169.904907 301.878326,168.866852 303.571747,167.762146 305.219574,166.595154 306.819489,165.370178 308.369263,164.091553 309.866608,162.763611 311.309204,161.390656 312.694794,159.977020 314.021149,158.527100 315.285919,157.045105 316.486847,155.535461 317.621674,154.002441 318.688080,152.450378 319.683838,150.883636 320.606628,149.306488 321.454163,147.723328 322.224243,146.138397 322.914490,144.556061 323.522675,142.980682 324.046509,141.416565 324.484772,139.864990 324.840332,138.315369 325.117188,136.753937 325.319214,135.167084 325.450348,133.545441 325.514374,131.896820 325.514954,130.233337 325.455811,128.567169 325.340149,126.908600 325.169312,125.260803 324.944122,123.625061 324.665375,122.002777 324.333923,120.395203 323.950592,118.803772 323.516205,117.229736 323.031555,115.674500 322.497528,114.139343 321.914917,112.625610 321.284546,111.134705 320.607239,109.667847 319.883881,108.226440 319.115204,106.811798 318.302094,105.425262 317.445343,104.068207 316.545837,102.741882 315.604370,101.447754 314.621735,100.187012 313.598785,98.961060 312.536377,97.771240 311.435303,96.618896 310.296387,95.505310 309.120453,94.431885 307.908386,93.399902 306.660919,92.410706 305.378967,91.465698 304.063263,90.566101 302.714722,89.713318 301.334137,88.908630 299.922333,88.153503 298.480133,87.449158 297.008362,86.796906 295.507874,86.198151 293.979462,85.654236 292.423950,85.166473 290.842194,84.736206 289.235016,84.364716 287.603210,84.053406 285.947632,83.803558 284.270477,83.615906 282.579285,83.488495 280.883057,83.418762 279.190186,83.401855 277.509033,83.441772 275.836121,83.529022 274.167908,83.662720 272.500305,83.840027 270.830200,84.058258 269.158203,84.317261 267.485931,84.617340 265.814911,84.958649 264.146698,85.341492 262.482910,85.766174 260.825073,86.232910 259.174805,86.741913 257.533630,87.293457 255.903168,87.887878 254.284958,88.525330 252.680588,89.206177 251.091629,89.930542 249.519623,90.698792 247.966156,91.511169 246.432816,92.367920 244.921173,93.269226 243.432770,94.215485 241.969223,95.206848 240.532043,96.243622 239.122864,97.326019 237.743210,98.454346 236.394669,99.628845 235.078812,100.849792 233.797226,102.117340 232.551453,103.431885 231.343094,104.793640 230.173691,106.202820 229.044830,107.659729 227.958084,109.164581 226.915024,110.717682 225.917221,112.319275 224.966217,113.969574 224.063644,115.668884 223.211014,117.417480 222.409943,119.215607 221.661972,121.063446 220.968689,122.961365 220.331650,124.909515 219.752441,126.908264 219.232788,128.960266 218.774979,131.078522 218.381531,133.278381 218.054901,135.575317 217.798264,137.975037 217.617630,140.445160 217.519699,142.943665 217.511169,145.428375 217.596985,147.864410 217.775040,150.245148 218.041473,152.571014 218.392410,154.842560 218.823990,157.060120 219.332367,159.224274 219.913620,161.335449 220.563934,163.394104 221.279434,165.400696 222.056259,167.355743 222.890503,169.259674 223.778366,171.112946 224.715942,172.916046 225.699356,174.669434 226.724762,176.373566 227.788284,178.028931 228.886078,179.636017 230.014252,181.195221 231.168945,182.707062 232.346313,184.171997 233.542465,185.590454 234.753555,186.962982 235.975677,188.289978 237.205017,189.571930 238.437683,190.809326 239.669830,192.002594 240.897552,193.152222 242.117035,194.258667 243.324371,195.322418 244.515701,196.343933 245.687180,197.323669 246.834930,198.262085 247.955078,199.159668 249.043777,200.016846 250.097137,200.834167 251.111298,201.612000 252.082428,202.350891 253.006622,203.051270 253.880020,203.713593 254.698776,204.338379 256.228607,205.523651 257.924011,206.843903 258.946014,207.632019 260.083221,208.493011 261.309540,209.395203 262.598846,210.306946 263.929230,211.201721 265.295074,212.074249 266.695068,212.924500 268.127716,213.752350 269.591675,214.557739 271.085480,215.340698 272.607788,216.101074 274.157104,216.838837 275.732117,217.553955 277.331329,218.246307 278.953400,218.915863 280.596863,219.562622 282.260345,220.186401 283.942444,220.787262 285.641724,221.365051 287.356781,221.919800 289.086212,222.451355 290.828613,222.959717 292.582581,223.444824 294.346680,223.906586 296.119507,224.344971 297.899658,224.759888 299.685760,225.151306 301.476349,225.519135 303.270050,225.863342 305.065430,226.183868 306.861084,226.480652 308.655640,226.753632 310.447662,227.002716 312.235718,227.227905 314.018433,227.429077 315.794373,227.606232 317.562134,227.759247 319.320312,227.888092 321.067505,227.992737 322.802307,228.073090 324.523315,228.129089 326.229065,228.160645 327.918213,228.167786 329.590118,228.151398 331.264038,228.105042 333.056122,228.014862 335.102478,227.859741 337.539948,227.619354 340.459564,227.277435 343.769318,226.833069 347.331360,226.289215 351.007874,225.648895 354.683594,224.914734 358.333313,224.088348 361.954254,223.170959 365.543762,222.163879 369.099182,221.068359 372.617737,219.885681 376.096802,218.617126 379.533630,217.263916 382.925598,215.827393 386.269897,214.308746 389.563965,212.709351 392.804962,211.030365 395.990326,209.273132 399.117279,207.438904 402.183136,205.528961 405.185181,203.544586 408.120789,201.487000 410.987183,199.357544 413.781738,197.157410 416.501709,194.887939 419.144470,192.550354 421.707184,190.145996 424.187286,187.676056 426.582031,185.141846 428.888672,182.544586 431.104614,179.885620 433.227112,177.166199 435.253418,174.387604 437.180969,171.551056 439.006958,168.657867 440.728699,165.709290 442.343506,162.706635 443.848694,159.651123 445.241577,156.544067 446.519440,153.386719 447.679565,150.180328 448.719330,146.926178 449.635986,143.625580 450.426819,140.279724 451.089142,136.890015 451.619385,133.453247 452.010315,129.949341 452.253784,126.353577 452.341675,122.641479 452.266357,118.800751 452.022339,114.868225 451.604675,110.892944 451.008301,106.924133 450.229828,103.002930 449.271454,99.138977 448.137054,95.334045 446.830414,91.589905 445.355408,87.908264 443.715759,84.290894 441.915314,80.739563 439.957886,77.256073 437.847290,73.842102 435.587311,70.499390 433.181763,67.229767 430.634460,64.034912 427.949219,60.916626 425.129852,57.876648 422.180115,54.916718 419.103882,52.038635 415.904968,49.244080 412.587097,46.534912 409.154144,43.912720 405.609894,41.379456 401.958160,38.936707 398.202789,36.586273 394.347534,34.329956 390.396210,32.169495 386.352661,30.106567 382.220673,28.143005 378.004059,26.280579 373.706604,24.520996 369.332153,22.865967 364.884491,21.317383 360.367432,19.876862 355.784790,18.546204 351.140381,17.327148 346.437988,16.221436 341.681427,15.230896 336.874512,14.357239 332.021057,13.602173 327.124878,12.967529 322.189758,12.455017 317.219513,12.066345 312.238007,11.800110 307.349274,11.641510 302.677368,11.572723 298.327057,11.573547 294.439545,11.634277 290.876099,11.737793 287.534454,11.877563 284.293030,12.044739 281.050720,12.232178 277.788544,12.440125 274.507996,12.670593 271.210602,12.925598 267.897858,13.207214 264.571289,13.517334 261.232391,13.858063 257.882721,14.231354 254.523727,14.639221 251.156982,15.083740 247.783936,15.566803 244.406158,16.090576 241.025116,16.656952 237.642349,17.267944 234.259369,17.925598 230.877686,18.631958 227.498779,19.388947 224.124207,20.198669 220.755478,21.063049 217.394043,21.984131 214.041504,22.963989 210.699310,24.004517 207.368988,25.107788 204.052063,26.275848 200.750031,27.510620 197.464401,28.814148 194.196732,30.188538 190.948456,31.635651 187.721161,33.157593 184.516296,34.756348 181.335419,36.433899 178.180023,38.192322 175.051605,40.033539 171.951736,41.959625 168.881866,43.972565 165.843521,46.074402 162.838226,48.267120 159.867493,50.552734 156.932800,52.933258 154.035721,55.410706 151.177948,57.984619 148.362030,60.644958 145.590820,63.379303 142.867096,66.175049 140.193268,69.019928 137.570526,71.902100 134.999542,74.810181 132.481110,77.732422 130.015930,80.659302 127.604965,83.589569 125.249039,86.524017 122.948990,89.463409 120.705688,92.408386 118.520020,95.359863 116.392853,98.318542 114.325043,101.285187 112.317474,104.260498 110.370972,107.245361 108.486404,110.240448 106.664734,113.246552 104.906708,116.264465 103.213257,119.294861 101.585236,122.338593 100.023483,125.396362 98.528900,128.468994 97.102325,131.557220 95.744675,134.661804 94.456772,137.783508 93.239471,140.923065 92.093704,144.081268 91.020248,147.258881 90.020035,150.456696 89.093918,153.675415 88.242737,156.915833 87.467392,160.178711 86.768768,163.464844 86.147644,166.774902 85.604950,170.109772 85.141571,173.470093 84.758377,176.856750 84.456161,180.270386 84.235809,183.711853 84.098236,187.181885 84.044312,190.681244 84.074829,194.210693 84.190720,197.770966 84.392838,201.362885 84.682053,204.987183 85.055984,208.627716 85.499496,212.200928 85.994232,215.606354 86.521759,218.743500 87.069580,221.544678 87.648773,224.073669 88.276154,226.427002 88.968704,228.701233 89.740311,230.976379 90.593246,233.266754 91.526779,235.570068 92.540192,237.884094 93.632812,240.206604 94.803894,242.535400 96.052795,244.868164 97.378723,247.202728 98.780991,249.536804 100.258957,251.868225 101.811829,254.194672 103.438934,256.513977 105.139526,258.823883 106.912994,261.122131 108.758545,263.406525 110.675522,265.674805 112.663132,267.924744 114.720779,270.154053 116.847672,272.360596 119.043137,274.542084 121.306458,276.696289 123.636902,278.820923 126.033813,280.913849 128.496490,282.972778 131.024139,284.995453 133.616119,286.979645 136.271698,288.923157 138.990173,290.823730 141.770844,292.679108 144.613007,294.487091 147.515961,296.245422 150.478958,297.951904 153.501312,299.604248 156.582336,301.200226 159.721283,302.737610 162.917480,304.214172 166.170166,305.627686 169.478699,306.975891 172.842346,308.256592 176.260376,309.467468 179.717819,310.604095 183.142654,311.652588 186.448547,312.596863 189.549164,313.420837 192.391907,314.116577 195.058975,314.708893 197.666229,315.230774 200.329590,315.715179 203.144455,316.189178 206.124435,316.656006 209.262604,317.112915 212.552063,317.557220 215.985931,317.986206 219.557281,318.397186 223.259216,318.787415 227.084885,319.154205 231.027328,319.494843 235.079681,319.806610 239.235046,320.086792 243.486511,320.332672 247.827179,320.541565 252.250168,320.710754 256.748535,320.837524 261.312866,320.921143 265.943939,320.952942 270.627167,320.936157 275.358215,320.866150 280.130157,320.740143 284.936127,320.555450 289.769196,320.309357 294.622498,319.999146 299.489136,319.622131 304.362183,319.175629 309.234741,318.656860 314.099945,318.063141 318.950836,317.391724 323.780579,316.639984 328.582275,315.805176 333.348938,314.884521 338.073792,313.875427 342.749847,312.775085 347.370239,311.580811 351.928070,310.289917 356.416412,308.899658 360.828430,307.407410 365.157166,305.810333 369.395752,304.105804 373.537231,302.291077 377.547638,300.426422 381.284180,298.823883 384.576965,297.858521 387.256042,297.905304 389.211609,299.215942 390.573242,301.548645 391.530670,304.538208 392.273560,307.819519 392.959869,311.088593 393.620453,314.286316 394.254425,317.414825 394.860901,320.476135 395.439026,323.472412 395.987915,326.405701 396.506714,329.278076 396.994537,332.091675 397.450500,334.848572 397.873688,337.550842 398.263275,340.200623 398.618378,342.799927 398.938110,345.350922 399.221649,347.855652 399.468018,350.316223 399.676422,352.734741 399.845947,355.113281 399.975769,357.453918 400.064911,359.758759 400.112579,362.029877 400.117889,364.269409 400.079956,366.479401 399.997864,368.661987 399.870789,370.819214 399.697876,372.953186 399.478180,375.066010 399.210876,377.159729 398.895020,379.236511 398.529846,381.298401 398.114410,383.347473 397.647827,385.385864 397.129211,387.415619 396.557739,389.438873 395.932526,391.457703 395.252686,393.474152 394.517273,395.490356 393.725586,397.508453 392.876526,399.530457 391.969391,401.558441 391.003235,403.594543 389.972229,405.648438 388.850830,407.759827 387.608398,409.976105 386.214478,412.344543 384.646851,414.894165 382.916321,417.580444 381.042114,420.340607 379.043457,423.111816 376.936737,425.841797 374.726929,428.519928 372.416260,431.146240 370.006958,433.720673 367.501251,436.243286 364.901306,438.713928 362.209351,441.132660 359.427582,443.499359 356.558258,445.814087 353.603516,448.076782 350.565613,450.287354 347.446747,452.445892 344.249115,454.552246 340.974976,456.606506 337.626434,458.608521 334.205811,460.558289 330.715271,462.455811 327.156982,464.301056 323.533234,466.093994 319.846161,467.834534 316.098022,469.522766 312.291046,471.158508 308.427368,472.741852 304.509247,474.272705 300.538879,475.751038 296.518463,477.176849 292.450226,478.550110 288.336365,479.870728 284.179138,481.138763 279.980682,482.354126 275.743225,483.516785 271.469025,484.626709 267.160217,485.683929 262.819061,486.688354 258.447754,487.639954 254.048508,488.538696 249.623520,489.384583 245.175003,490.177521 240.705185,490.917542 236.216263,491.604614 231.722839,492.237122 227.289215,492.807129 222.992035,493.305298 218.908020,493.722137 215.089142,494.050903 211.488770,494.295105 208.035614,494.461151 204.658371,494.555328 201.297836,494.583130 197.943542,494.547119 194.597076,494.448975 191.260010,494.290527 187.933990,494.073486 184.620636,493.799622 181.321564,493.470703 178.038345,493.088501 174.772583,492.654755 171.525955,492.171234 168.300049,491.639648 165.096436,491.061890 161.916779,490.439545 158.762634,489.774475 155.635651,489.068420 152.537460,488.323120 149.469604,487.540405 146.433762,486.721924 143.431519,485.869476 140.464493,484.984833 137.534256,484.069794 134.642471,483.126038 131.790741,482.155365 128.980637,481.159515 126.213821,480.140289 123.491852,479.099426 120.816422,478.038666 118.189072,476.959778 115.611420,475.864502 113.085083,474.754639 110.611679,473.631897 108.192841,472.498047 105.830185,471.354919 103.525253,470.204163 101.279663,469.047607 99.095169,467.886963 96.973190,466.724060 94.915436,465.560608 92.923492,464.398315 90.999023,463.239014 89.145416,462.086121 87.373505,460.949402 85.695999,459.840454 84.125534,458.770752 82.669067,457.747681 81.310776,456.762360 80.029037,455.801788 78.802322,454.852905 77.612640,453.904968 76.456451,452.955750 75.333710,452.005188 74.244446,451.053406 73.188599,450.100342 72.166245,449.146027 71.177338,448.190430 70.221909,447.233521 69.299896,446.275391 68.411346,445.315948 67.556259,444.355255 66.734665,443.393250 65.946503,442.430054 65.191818,441.465515 64.470520,440.499756 63.782761,439.532654 63.128418,438.564331 62.507553,437.594666 61.920135,436.623840 61.366180,435.651642 60.845673,434.678223 60.358612,433.703522 59.905029,432.727539 59.484879,431.750305 59.098221,430.771790 58.744995,429.791992 58.425247,428.810913 57.886078,426.845001 57.480774,424.873962 57.209335,422.897888 57.071655,420.916687 57.067810,418.930420 57.197815,416.939056 57.461578,414.942749 57.858017,412.944489 58.105286,411.946411 58.384766,410.950378 58.695862,409.958557 59.037949,408.973572 59.410339,407.997864 59.812408,407.033630 60.244110,406.081238 60.705399,405.140747 61.196289,404.212097 61.716797,403.295349 62.266876,402.390381 62.846619,401.497345 63.455978,400.616119 64.094864,399.746826 64.763412,398.889343 65.461533,398.043762 66.189285,397.209961 66.946640,396.388123 67.733582,395.578125 68.550125,394.779968 69.396332,393.993652 70.272095,393.219238 71.177490,392.456665 72.112488,391.705994 73.077072,390.967102 74.071243,390.240143 75.095062,389.525024 76.148468,388.821777 77.231522,388.130371 78.344131,387.450806 79.486359,386.783142 80.658188,386.127319 81.859650,385.483368 83.090729,384.851257 84.351349,384.231018 85.641632,383.622620 86.961517,383.026123 88.311005,382.441467 89.690125,381.868683 91.098770,381.307739 92.537125,380.758636 94.005020,380.221405 95.502563,379.696045 97.029694,379.182556 98.586411,378.680908 100.166336,378.192413 101.737320,377.723572 103.260880,377.282227 104.698456,376.876099 106.023026,376.510315 107.254135,376.178955 108.422760,375.873413 109.559906,375.585083 110.691376,375.306763 111.822403,375.036987 112.952957,374.775879 114.083069,374.523315 115.212616,374.279480 116.341690,374.044250 117.470261,373.817749 118.598358,373.599915 119.725891,373.390778 120.852921,373.190399 121.979401,372.998779 123.105347,372.815887 124.230728,372.641815 125.355591,372.476501 126.479889,372.320068 127.603638,372.172424 128.726776,372.033691 129.849365,371.903809 130.971344,371.782806 132.092743,371.670715 133.213531,371.567566 134.333710,371.473358 135.453293,371.388123 136.572235,371.311859 137.690582,371.244598 138.808273,371.186340 139.925323,371.137146 141.041718,371.096985 142.157440,371.065918 143.272552,371.043945 144.386963,371.031067" />
				<polygon fill="#FEC700" stroke="none" fill-opacity="1" points="144.386963,371.031067 134.971542,371.128967" />
				<polygon fill="#FEC700" stroke="none" fill-opacity="1" points="134.971542,371.128967 145.500732,371.027283" />
			</g>
		</g>
	</g>
</svg>
