<?xml version="1.0" encoding="UTF-8"?>
<!-- Generator: Blender, SVG Export for Grease Pencil - v1.0 -->
<!DOCTYPE svg PUBLIC "-//W3C//DTD SVG 1.1//EN" "http://www.w3.org/Graphics/SVG/1.1/DTD/svg11.dtd">
<svg version="1.0" x="0px" y="0px" xmlns="http://www.w3.org/2000/svg" width="1024px" height="1024px" viewBox="0 0 1024 1024">
	<g id="blender_frame_1">
		<g id="blender_object_Line Art">
			<!--Layer: Lines-->
			<g id="Lines">
				<polygon fill="#FEEE00" stroke="none" fill-opacity="1" points="263.450806,576.725098 268.162598,579.894897 274.764008,583.906860 281.649109,587.389526 289.744751,590.589722 299.977173,593.754395 313.271912,597.129761 330.553558,600.962280 352.745667,605.497681 380.769714,610.981689 415.105377,617.566711 454.471436,625.034668 497.148834,633.075317 541.421204,641.378662 545.522522,642.145569" />
				<polyline stroke="#000000" stroke-opacity="1" fill="none" stroke-linecap="round" stroke-width="9.61950684" points="263.450806,576.725098 268.162598,579.894897 274.764008,583.906860 281.649109,587.389526 289.744751,590.589722 299.977173,593.754395 313.271912,597.129761 330.553558,600.962280 352.745667,605.497681 380.769714,610.981689 415.105377,617.566711 454.471436,625.034668 497.148834,633.075317 541.421204,641.378662 545.522522,642.145569" />
				<polygon fill="#FEEE00" stroke="none" fill-opacity="1" points="774.011230,641.584167 765.238892,639.844727 749.919861,636.890259 729.430786,632.995728 702.960999,628.001953 670.113159,621.827576 632.151733,614.702332 590.758606,606.934204 547.618164,598.831604 504.417786,590.703491 462.848297,582.859497 424.603760,575.609863 391.380859,569.265442 364.457642,564.047363 343.430145,559.817993 327.472504,556.349365 315.756439,553.413391 307.453125,550.781494 301.732971,548.225098 297.765503,545.515625 294.720184,542.424072 291.911774,538.774414 289.238556,534.601685 286.744324,529.993958 284.473145,525.039307 282.468964,519.825562 280.776001,514.441101 279.437988,508.973877 278.499268,503.512146 277.999573,498.129272 277.960876,492.839478 278.401184,487.642212 279.338013,482.536926 280.789368,477.523132 282.628540,472.960754 285.159271,468.147217 288.257141,463.424377 291.923248,458.791748 296.090698,454.248047 300.675903,449.791870 305.594849,445.421570 310.764038,441.135620 316.099487,436.932739 321.517212,432.811340 326.933350,428.769775 332.287476,424.809265 337.613129,420.940674 342.967529,417.177551 348.407806,413.533264 353.991272,410.021484 359.775085,406.655701 365.816345,403.449341 372.172302,400.416077 378.881561,397.568237 385.906586,394.913818 393.191467,392.459656 400.680725,390.212463 408.318665,388.178894 416.050049,386.365662 423.819885,384.779419 431.573212,383.426697 439.274933,382.310059 446.967499,381.415222 454.712585,380.723511 462.571228,380.216614 470.604431,379.875977 478.872559,379.683350 487.435333,379.620117 496.352081,379.667908 505.685181,379.816467 515.510376,380.089233 525.907410,380.518127 536.955872,381.134827 548.736084,381.971191 561.328247,383.058838 574.813232,384.429749 589.272217,386.115723 604.753357,388.159302 621.170654,390.646851 638.403687,393.675598 656.331116,397.342407 674.830811,401.743591 693.779175,406.975403 713.051697,413.132935 732.522949,420.311035 752.035706,428.533447 771.310547,437.545654 790.039551,447.024780 807.917908,456.649414 824.643311,466.099609 839.916199,475.057495 853.438965,483.206787 864.915527,490.232544 874.146362,495.891846 881.311890,500.226624 886.686401,503.348816 890.542542,505.369995 893.152100,506.400513 896.048767,507.170288 897.698486,507.322449 900.456787,505.851929 901.385864,505.223389 903.964844,501.529724 906.337158,495.630859 908.914429,486.321655 910.778442,476.131836 912.347778,463.833130 913.746033,447.984558 914.629028,431.766602 915.152710,413.758789 915.314209,394.174805 915.111633,373.241089 914.544678,351.197021 913.614624,328.293640 912.324341,304.792419 910.678833,280.963745 908.689331,257.084656 906.385559,233.435181 903.802917,210.291748 900.977966,187.924805 897.947571,166.597412 894.749146,146.562866 891.420044,128.063416 887.996948,111.329224 884.517334,96.555298 880.583374,82.159546 877.085205,71.469482 873.650330,62.957886 869.652344,55.404907 866.436646,51.341187 863.387207,49.560242 859.501709,49.540100 855.416931,51.168396 851.855103,53.615356 846.940613,57.335815 840.418762,62.469116 832.034668,69.154053 821.617676,77.449097 809.333740,87.089478 795.433472,97.729248 780.167664,109.022339 763.787598,120.622681 746.544922,132.183472 728.691772,143.358032 710.480469,153.799438 692.142029,163.237671 673.819397,171.709351 655.632996,179.328430 637.702881,186.208984 620.148315,192.465393 603.088013,198.212158 586.640137,203.563599 570.922363,208.634460 556.026917,213.517212 541.947144,218.216064 528.652283,222.712646 516.112000,226.988770 504.296478,231.025757 493.176392,234.805115 482.722687,238.307983 472.906860,241.515442 463.680542,244.422485 454.915680,247.079041 446.464294,249.548828 438.177704,251.895813 429.907104,254.183777 421.503448,256.476807 412.817535,258.838867 403.699707,261.333862 394.042297,264.020752 383.907104,266.936890 373.398407,270.114624 362.620728,273.586060 351.678589,277.383179 340.676910,281.537903 329.721069,286.081970 318.916687,291.046997 308.359680,296.459229 298.106750,302.323608 288.204712,308.640015 278.700287,315.408081 269.640076,322.627625 261.070862,330.298218 253.038788,338.419373 245.258698,347.365845 238.432678,356.384766 232.229797,365.827698 226.639954,375.670654 221.653870,385.889648 217.261444,396.460815 213.452667,407.360352 210.217224,418.564697 207.545654,430.050293 205.442322,441.778809 203.972656,453.651245 203.216522,465.553955 203.253876,477.373535 204.164673,488.996643 206.028442,500.310364 208.925049,511.201965 212.933899,521.559082 218.082825,531.285278 224.278870,540.478516 231.105652,548.833130 238.431396,556.494385 246.027496,563.446167 253.665375,569.672485 261.117035,575.157410 268.154694,579.885010" />
				<polyline stroke="#000000" stroke-opacity="1" fill="none" stroke-linecap="round" stroke-width="9.58483887" points="774.011230,641.584167 765.238892,639.844727 749.919861,636.890259 729.430786,632.995728 702.960999,628.001953 670.113159,621.827576 632.151733,614.702332 590.758606,606.934204 547.618164,598.831604 504.417786,590.703491 462.848297,582.859497 424.603760,575.609863 391.380859,569.265442 364.457642,564.047363 343.430145,559.817993 327.472504,556.349365 315.756439,553.413391 307.453125,550.781494 301.732971,548.225098 297.765503,545.515625 294.720184,542.424072 291.911774,538.774414 289.238556,534.601685 286.744324,529.993958 284.473145,525.039307 282.468964,519.825562 280.776001,514.441101 279.437988,508.973877 278.499268,503.512146 277.999573,498.129272 277.960876,492.839478 278.401184,487.642212 279.338013,482.536926 280.789368,477.523132 282.628540,472.960754 285.159271,468.147217 288.257141,463.424377 291.923248,458.791748 296.090698,454.248047 300.675903,449.791870 305.594849,445.421570 310.764038,441.135620 316.099487,436.932739 321.517212,432.811340 326.933350,428.769775 332.287476,424.809265 337.613129,420.940674 342.967529,417.177551 348.407806,413.533264 353.991272,410.021484 359.775085,406.655701 365.816345,403.449341 372.172302,400.416077 378.881561,397.568237 385.906586,394.913818 393.191467,392.459656 400.680725,390.212463 408.318665,388.178894 416.050049,386.365662 423.819885,384.779419 431.573212,383.426697 439.274933,382.310059 446.967499,381.415222 454.712585,380.723511 462.571228,380.216614 470.604431,379.875977 478.872559,379.683350 487.435333,379.620117 496.352081,379.667908 505.685181,379.816467 515.510376,380.089233 525.907410,380.518127 536.955872,381.134827 548.736084,381.971191 561.328247,383.058838 574.813232,384.429749 589.272217,386.115723 604.753357,388.159302 621.170654,390.646851 638.403687,393.675598 656.331116,397.342407 674.830811,401.743591 693.779175,406.975403 713.051697,413.132935 732.522949,420.311035 752.035706,428.533447 771.310547,437.545654 790.039551,447.024780 807.917908,456.649414 824.643311,466.099609 839.916199,475.057495 853.438965,483.206787 864.915527,490.232544 874.146362,495.891846 881.311890,500.226624 886.686401,503.348816 890.542542,505.369995 893.152100,506.400513 896.048767,507.170288 897.698486,507.322449 900.456787,505.851929 901.385864,505.223389 903.964844,501.529724 906.337158,495.630859 908.914429,486.321655 910.778442,476.131836 912.347778,463.833130 913.746033,447.984558 914.629028,431.766602 915.152710,413.758789 915.314209,394.174805 915.111633,373.241089 914.544678,351.197021 913.614624,328.293640 912.324341,304.792419 910.678833,280.963745 908.689331,257.084656 906.385559,233.435181 903.802917,210.291748 900.977966,187.924805 897.947571,166.597412 894.749146,146.562866 891.420044,128.063416 887.996948,111.329224 884.517334,96.555298 880.583374,82.159546 877.085205,71.469482 873.650330,62.957886 869.652344,55.404907 866.436646,51.341187 863.387207,49.560242 859.501709,49.540100 855.416931,51.168396 851.855103,53.615356 846.940613,57.335815 840.418762,62.469116 832.034668,69.154053 821.617676,77.449097 809.333740,87.089478 795.433472,97.729248 780.167664,109.022339 763.787598,120.622681 746.544922,132.183472 728.691772,143.358032 710.480469,153.799438 692.142029,163.237671 673.819397,171.709351 655.632996,179.328430 637.702881,186.208984 620.148315,192.465393 603.088013,198.212158 586.640137,203.563599 570.922363,208.634460 556.026917,213.517212 541.947144,218.216064 528.652283,222.712646 516.112000,226.988770 504.296478,231.025757 493.176392,234.805115 482.722687,238.307983 472.906860,241.515442 463.680542,244.422485 454.915680,247.079041 446.464294,249.548828 438.177704,251.895813 429.907104,254.183777 421.503448,256.476807 412.817535,258.838867 403.699707,261.333862 394.042297,264.020752 383.907104,266.936890 373.398407,270.114624 362.620728,273.586060 351.678589,277.383179 340.676910,281.537903 329.721069,286.081970 318.916687,291.046997 308.359680,296.459229 298.106750,302.323608 288.204712,308.640015 278.700287,315.408081 269.640076,322.627625 261.070862,330.298218 253.038788,338.419373 245.258698,347.365845 238.432678,356.384766 232.229797,365.827698 226.639954,375.670654 221.653870,385.889648 217.261444,396.460815 213.452667,407.360352 210.217224,418.564697 207.545654,430.050293 205.442322,441.778809 203.972656,453.651245 203.216522,465.553955 203.253876,477.373535 204.164673,488.996643 206.028442,500.310364 208.925049,511.201965 212.933899,521.559082 218.082825,531.285278 224.278870,540.478516 231.105652,548.833130 238.431396,556.494385 246.027496,563.446167 253.665375,569.672485 261.117035,575.157410 268.154694,579.885010" />
				<polygon fill="#FEEE00" stroke="none" fill-opacity="1" points="526.823853,594.919189 762.470215,594.919189 843.862915,702.802612 841.035828,977.903809 137.760071,977.903809 134.544617,702.802612 227.119263,594.919189 304.564880,594.919189" />
				<polyline stroke="#000000" stroke-opacity="1" fill="none" stroke-linecap="round" stroke-width="8.40356445" points="526.823853,594.919189 762.470215,594.919189 843.862915,702.802612 841.035828,977.903809 137.760071,977.903809 134.544617,702.802612 227.119263,594.919189 304.564880,594.919189" />
				<polygon fill="#FEEE00" stroke="none" fill-opacity="1" points="843.862915,702.802612 134.544617,702.802612" />
				<polyline stroke="#000000" stroke-opacity="1" fill="none" stroke-linecap="round" stroke-width="11.1343994" points="843.862915,702.802612 134.544617,702.802612" />
				<polygon fill="#FEEE00" stroke="none" fill-opacity="1" points="545.522522,642.145569 545.690308,642.172485 550.096558,642.699463 553.983032,642.966675 558.880249,643.223877 561.464722,643.331665 564.745605,643.468384 568.834290,643.606445 571.536072,643.697632 577.638123,643.865601 586.950073,644.082642 596.958008,644.268799 599.893005,644.312256 606.831909,644.414917 613.078186,644.488342 617.226807,644.537048 627.261597,644.627014 630.354858,644.648682 639.151917,644.704529 642.677979,644.717957 650.467590,644.747681 658.641724,644.758179 661.874207,644.762329 669.774353,644.752197 673.259766,644.747681 684.511963,644.704529 691.639404,644.658875 695.534485,644.633911 703.531311,644.561401 706.212952,644.536987 716.425903,644.414856 723.643005,644.305664 726.095398,644.268616 730.441467,644.187195 735.087891,644.099243 738.157410,644.027771 743.305176,643.907959 750.494690,643.701904 757.094727,643.466431 760.536316,643.312805 762.582336,643.221436 766.129517,643.020264 770.536743,642.696655 772.983643,642.422668 774.011230,641.584167" />
				<polyline stroke="#000000" stroke-opacity="1" fill="none" stroke-linecap="round" stroke-width="9.59899902" points="545.522522,642.145569 545.690308,642.172485 550.096558,642.699463 553.983032,642.966675 558.880249,643.223877 561.464722,643.331665 564.745605,643.468384 568.834290,643.606445 571.536072,643.697632 577.638123,643.865601 586.950073,644.082642 596.958008,644.268799 599.893005,644.312256 606.831909,644.414917 613.078186,644.488342 617.226807,644.537048 627.261597,644.627014 630.354858,644.648682 639.151917,644.704529 642.677979,644.717957 650.467590,644.747681 658.641724,644.758179 661.874207,644.762329 669.774353,644.752197 673.259766,644.747681 684.511963,644.704529 691.639404,644.658875 695.534485,644.633911 703.531311,644.561401 706.212952,644.536987 716.425903,644.414856 723.643005,644.305664 726.095398,644.268616 730.441467,644.187195 735.087891,644.099243 738.157410,644.027771 743.305176,643.907959 750.494690,643.701904 757.094727,643.466431 760.536316,643.312805 762.582336,643.221436 766.129517,643.020264 770.536743,642.696655 772.983643,642.422668 774.011230,641.584167" />
			</g>
		</g>
	</g>
</svg>
