<svg width="234" height="224" viewBox="0 0 234 224" fill="none" xmlns="http://www.w3.org/2000/svg">
<path d="M182.656 14.8393C180.381 15.3248 178.284 15.8754 176.364 16.4912C174.444 17.1071 172.609 17.832 170.859 18.666C163.951 21.9581 158.259 26.2674 153.782 31.594C149.397 36.8767 146.225 43.2276 144.265 50.6468C142.338 57.3521 142.244 63.3835 143.983 68.7409C145.633 74.0403 149.039 78.4036 154.199 81.831C157.347 83.9223 161.12 85.1674 165.517 85.5662C169.913 85.965 173.769 85.3743 177.085 83.7941C188.137 78.5268 194.533 68.6437 196.274 54.1449C198.02 39.5441 193.48 26.4423 182.656 14.8393ZM112.357 131.106C116.766 125.314 120.592 118.452 123.836 110.52C127.172 102.544 129.784 93.667 131.67 83.888C132.256 80.9149 133.043 76.4991 134.03 70.6408C138.916 42.4706 149.74 24.3912 166.502 16.4024C167.791 15.7879 169.35 15.1946 171.178 14.6227C172.918 13.9927 175.753 13.0909 179.68 11.9173L176.27 9.65175C170.585 5.87581 164.324 3.87108 157.487 3.63755C150.65 3.40403 143.732 4.95526 136.733 8.29124C126.786 13.0318 118.848 21.1554 112.918 32.6618C106.993 44.0663 103.413 58.394 102.177 75.6452C101.29 85.2473 101.632 94.5629 103.203 103.592C104.866 112.577 107.918 121.748 112.357 131.106ZM191.658 116.957C188.188 125.895 183.832 133.508 178.591 139.798C173.441 146.044 167.689 150.681 161.334 153.71C153.506 157.441 144.967 158.966 135.718 158.286C126.473 157.504 118.134 154.644 110.7 149.706L108.076 147.963C108.076 147.963 107.816 147.738 107.296 147.287C106.689 146.779 106.122 146.35 105.598 146.002C103.36 147.667 101.128 149.18 98.904 150.539C96.7719 151.854 94.5085 153.083 92.114 154.224C81.0623 159.491 68.7571 161.615 55.1985 160.594C41.6399 159.573 29.7007 155.635 19.3809 148.78C12.4719 144.191 7.35878 138.746 4.04156 132.445C0.724342 126.144 -0.550856 119.518 0.21597 112.567C1.09346 105.165 4.01957 98.2828 8.99429 91.9209C13.969 85.5589 20.3245 80.5344 28.0607 76.8473C30.1789 75.8377 33.9824 74.424 39.4711 72.6062C39.7474 72.4745 40.0214 72.3938 40.293 72.3642C24.9198 85.478 16.4088 99.2624 14.7598 113.717C13.1108 128.172 18.3646 139.437 30.5209 147.512C38.6543 152.914 47.9741 156.005 58.4803 156.785C68.9865 157.564 78.6142 155.869 87.3635 151.699C89.758 150.558 92.0698 149.257 94.2987 147.795C96.6197 146.29 99.0444 144.486 101.573 142.383C94.8533 135.608 89.9874 127.7 86.9751 118.66C83.9674 109.517 82.8086 99.3437 83.4987 88.1394C84.8914 69.4166 90.0242 52.6528 98.897 37.8479C107.862 22.9991 119.022 12.3923 132.376 6.02763C141.401 1.72597 150.097 -0.273258 158.462 0.0299466C166.832 0.231166 174.647 2.74257 181.906 7.56415C182.168 7.73843 182.734 8.16701 183.604 8.84991C184.474 9.53281 185.259 10.1066 185.958 10.5714C192.23 9.37839 198.178 9.33695 203.804 10.4471C209.434 11.4552 214.698 13.5858 219.596 16.8389C225.718 20.9053 229.913 25.7405 232.18 31.3445C234.361 36.8904 234.582 42.9212 232.844 49.4367C231.972 52.7454 230.753 55.7708 229.187 58.5128C227.625 61.1529 226.43 62.6704 225.601 63.0655C225.233 63.2411 224.733 63.3295 224.102 63.3308C223.384 63.274 222.894 63.1585 222.631 62.9842C221.669 62.3452 221.838 60.6185 223.137 57.8042C223.948 55.8213 224.518 54.2031 224.845 52.9495C227.246 45.7188 227.585 39.2718 225.86 33.6084C224.136 27.945 220.431 23.2253 214.747 19.4493C211.074 17.0095 207.363 15.3856 203.616 14.5775C199.868 13.7694 195.237 13.5823 189.721 14.0162C200.587 26.6971 204.909 40.6006 202.689 55.7268C200.474 70.7511 193.702 80.9627 182.374 86.3617C176.94 88.9515 171.346 90.1212 165.591 89.8709C159.748 89.5625 154.51 87.8688 149.874 84.79C147.95 83.512 146.215 82.0442 144.669 80.3866C143.035 78.671 141.422 76.4964 139.83 73.8629C138.371 86.1322 135.646 97.5082 131.655 107.991C127.668 118.372 122.315 128.107 115.594 137.197C116.836 139.598 118.272 141.707 119.901 143.525C121.443 145.284 123.263 146.861 125.362 148.255C130.26 151.508 135.581 153.362 141.327 153.816C147.077 154.169 152.623 153.072 157.965 150.526C163.767 147.761 169.075 142.986 173.889 136.202C178.707 129.316 183.955 118.933 189.632 105.052L189.937 104.308C193.439 94.6572 196.572 89.1731 199.335 87.8563C199.427 87.8124 199.563 87.7976 199.742 87.8118C200.014 87.7821 200.237 87.8253 200.412 87.9415C200.849 88.2319 201.021 91.3929 200.927 97.4242C200.745 103.397 201.82 109.47 204.152 115.642C204.796 117.331 205.806 119.893 207.181 123.328C214.072 140.198 217.467 152.698 217.368 160.827C217.009 170.675 213.065 180.138 205.534 189.215C198.003 198.292 187.698 205.947 174.621 212.18C157.951 220.125 140.788 224.065 123.131 223.999C105.567 223.89 90.8376 219.885 78.9436 211.984C69.1485 205.478 64.6115 198.262 65.3327 190.335C66.1459 182.365 71.9863 175.79 82.8538 170.61C90.8663 166.792 99.6883 164.982 109.32 165.18C118.864 165.321 126.741 167.453 132.95 171.578C140.297 176.457 143.499 182.314 142.557 189.149C141.62 195.881 136.869 201.288 128.304 205.371C126.554 206.205 124.627 206.973 122.523 207.677C120.331 208.322 118.008 208.881 115.554 209.352C123.673 203.188 128.291 196.746 129.408 190.028C130.529 183.208 128.072 177.794 122.038 173.785C117.403 170.707 111.888 169.145 105.493 169.1C99.1896 169.011 92.9989 170.415 86.9205 173.312C77.8028 177.657 72.9434 183.465 72.3422 190.736C71.7457 197.905 75.6453 204.278 84.041 209.854C94.0985 216.535 106.871 219.976 122.359 220.177C137.847 220.378 152.406 217.23 166.037 210.734C182.338 202.964 192.49 191.741 196.491 177.062C200.585 162.34 198.974 142.305 191.658 116.957Z" fill="#DACA3B"/>
<path d="M182.656 14.8393C180.381 15.3248 178.284 15.8754 176.364 16.4912C174.444 17.1071 172.609 17.832 170.859 18.666C163.951 21.9581 158.259 26.2674 153.782 31.594C149.397 36.8767 146.225 43.2276 144.265 50.6468C142.338 57.3521 142.244 63.3835 143.983 68.7409C145.633 74.0403 149.039 78.4036 154.199 81.831C157.347 83.9223 161.12 85.1674 165.517 85.5662C169.913 85.965 173.769 85.3743 177.085 83.7941C188.137 78.5268 194.533 68.6437 196.274 54.1449C198.02 39.5441 193.48 26.4423 182.656 14.8393ZM112.357 131.106C116.766 125.314 120.592 118.452 123.836 110.52C127.172 102.544 129.784 93.667 131.67 83.888C132.256 80.9149 133.043 76.4991 134.03 70.6408C138.916 42.4706 149.74 24.3912 166.502 16.4024C167.791 15.7879 169.35 15.1946 171.178 14.6227C172.918 13.9927 175.753 13.0909 179.68 11.9173L176.27 9.65175C170.585 5.87581 164.324 3.87108 157.487 3.63755C150.65 3.40403 143.732 4.95526 136.733 8.29124C126.786 13.0318 118.848 21.1554 112.918 32.6618C106.993 44.0663 103.413 58.394 102.177 75.6452C101.29 85.2473 101.632 94.5629 103.203 103.592C104.866 112.577 107.918 121.748 112.357 131.106ZM191.658 116.957C188.188 125.895 183.832 133.508 178.591 139.798C173.441 146.044 167.689 150.681 161.334 153.71C153.506 157.441 144.967 158.966 135.718 158.286C126.473 157.504 118.134 154.644 110.7 149.706L108.076 147.963C108.076 147.963 107.816 147.738 107.296 147.287C106.689 146.779 106.122 146.35 105.598 146.002C103.36 147.667 101.128 149.18 98.904 150.539C96.7719 151.854 94.5085 153.083 92.114 154.224C81.0623 159.491 68.7571 161.615 55.1985 160.594C41.6399 159.573 29.7007 155.635 19.3809 148.78C12.4719 144.191 7.35878 138.746 4.04156 132.445C0.724342 126.144 -0.550856 119.518 0.21597 112.567C1.09346 105.165 4.01957 98.2828 8.99429 91.9209C13.969 85.5589 20.3245 80.5344 28.0607 76.8473C30.1789 75.8377 33.9824 74.424 39.4711 72.6062C39.7474 72.4745 40.0214 72.3938 40.293 72.3642C24.9198 85.478 16.4088 99.2624 14.7598 113.717C13.1108 128.172 18.3646 139.437 30.5209 147.512C38.6543 152.914 47.9741 156.005 58.4803 156.785C68.9865 157.564 78.6142 155.869 87.3635 151.699C89.758 150.558 92.0698 149.257 94.2987 147.795C96.6197 146.29 99.0444 144.486 101.573 142.383C94.8533 135.608 89.9874 127.7 86.9751 118.66C83.9674 109.517 82.8086 99.3437 83.4987 88.1394C84.8914 69.4166 90.0242 52.6528 98.897 37.8479C107.862 22.9991 119.022 12.3923 132.376 6.02763C141.401 1.72597 150.097 -0.273258 158.462 0.0299466C166.832 0.231166 174.647 2.74257 181.906 7.56415C182.168 7.73843 182.734 8.16701 183.604 8.84991C184.474 9.53281 185.259 10.1066 185.958 10.5714C192.23 9.37839 198.178 9.33695 203.804 10.4471C209.434 11.4552 214.698 13.5858 219.596 16.8389C225.718 20.9053 229.913 25.7405 232.18 31.3445C234.361 36.8904 234.582 42.9212 232.844 49.4367C231.972 52.7454 230.753 55.7708 229.187 58.5128C227.625 61.1529 226.43 62.6704 225.601 63.0655C225.233 63.2411 224.733 63.3295 224.102 63.3308C223.384 63.274 222.894 63.1585 222.631 62.9842C221.669 62.3452 221.838 60.6185 223.137 57.8042C223.948 55.8213 224.518 54.2031 224.845 52.9495C227.246 45.7188 227.585 39.2718 225.86 33.6084C224.136 27.945 220.431 23.2253 214.747 19.4493C211.074 17.0095 207.363 15.3856 203.616 14.5775C199.868 13.7694 195.237 13.5823 189.721 14.0162C200.587 26.6971 204.909 40.6006 202.689 55.7268C200.474 70.7511 193.702 80.9627 182.374 86.3617C176.94 88.9515 171.346 90.1212 165.591 89.8709C159.748 89.5625 154.51 87.8688 149.874 84.79C147.95 83.512 146.215 82.0442 144.669 80.3866C143.035 78.671 141.422 76.4964 139.83 73.8629C138.371 86.1322 135.646 97.5082 131.655 107.991C127.668 118.372 122.315 128.107 115.594 137.197C116.836 139.598 118.272 141.707 119.901 143.525C121.443 145.284 123.263 146.861 125.362 148.255C130.26 151.508 135.581 153.362 141.327 153.816C147.077 154.169 152.623 153.072 157.965 150.526C163.767 147.761 169.075 142.986 173.889 136.202C178.707 129.316 183.955 118.933 189.632 105.052L189.937 104.308C193.439 94.6572 196.572 89.1731 199.335 87.8563C199.427 87.8124 199.563 87.7976 199.742 87.8118C200.014 87.7821 200.237 87.8253 200.412 87.9415C200.849 88.2319 201.021 91.3929 200.927 97.4242C200.745 103.397 201.82 109.47 204.152 115.642C204.796 117.331 205.806 119.893 207.181 123.328C214.072 140.198 217.467 152.698 217.368 160.827C217.009 170.675 213.065 180.138 205.534 189.215C198.003 198.292 187.698 205.947 174.621 212.18C157.951 220.125 140.788 224.065 123.131 223.999C105.567 223.89 90.8376 219.885 78.9436 211.984C69.1485 205.478 64.6115 198.262 65.3327 190.335C66.1459 182.365 71.9863 175.79 82.8538 170.61C90.8663 166.792 99.6883 164.982 109.32 165.18C118.864 165.321 126.741 167.453 132.95 171.578C140.297 176.457 143.499 182.314 142.557 189.149C141.62 195.881 136.869 201.288 128.304 205.371C126.554 206.205 124.627 206.973 122.523 207.677C120.331 208.322 118.008 208.881 115.554 209.352C123.673 203.188 128.291 196.746 129.408 190.028C130.529 183.208 128.072 177.794 122.038 173.785C117.403 170.707 111.888 169.145 105.493 169.1C99.1896 169.011 92.9989 170.415 86.9205 173.312C77.8028 177.657 72.9434 183.465 72.3422 190.736C71.7457 197.905 75.6453 204.278 84.041 209.854C94.0985 216.535 106.871 219.976 122.359 220.177C137.847 220.378 152.406 217.23 166.037 210.734C182.338 202.964 192.49 191.741 196.491 177.062C200.585 162.34 198.974 142.305 191.658 116.957Z" fill="url(#paint0_linear_908_90)" fill-opacity="0.33" style="mix-blend-mode:overlay"/>
<defs>
<linearGradient id="paint0_linear_908_90" x1="104.815" y1="156.41" x2="130.05" y2="209.357" gradientUnits="userSpaceOnUse">
<stop stop-color="white"/>
<stop offset="1"/>
</linearGradient>
</defs>
</svg>
